General
Complete name                            : ../.././Samples/divx4b153_badmacroblock.avi
Format                                   : AVI
Format/Info                              : Audio Video Interleave
File size                                : 4.81 MiB
Duration                                 : 44 s 0 ms
Overall bit rate mode                    : Variable
Overall bit rate                         : 917 kb/s
Writing library                          : VirtualDub build 0/release

Video
ID                                       : 0
Format                                   : MPEG-4 Visual
Codec ID                                 : DIV3
Codec ID/Hint                            : DivX 3 Low
Duration                                 : 44 s 0 ms
Bit rate                                 : 775 kb/s
Width                                    : 576 pixels
Height                                   : 312 pixels
Display aspect ratio                     : 1.85:1
Frame rate                               : 25.000 FPS
Color space                              : YUV
Chroma subsampling                       : 4:2:0
Bit depth                                : 8 bits
Compression mode                         : Lossy
Bits/(Pixel*Frame)                       : 0.172
Stream size                              : 4.06 MiB (84%)

Audio
ID                                       : 1
Format                                   : MPEG Audio
Format version                           : Version 1
Format profile                           : Layer 3
Codec ID                                 : 55
Codec ID/Hint                            : MP3
Duration                                 : 43 s 990 ms
Bit rate mode                            : Variable
Bit rate                                 : 128 kb/s
Channel(s)                               : 2 channels
Sampling rate                            : 44.1 kHz
Frame rate                               : 38.281 FPS (1152 SPF)
Compression mode                         : Lossy
Stream size                              : 686 KiB (14%)
Alignment                                : Aligned on interleaves
Interleave, duration                     : 26  ms (0.65 video frame)
Interleave, preload duration             : 495  ms
Writing library                          : LAME3.88 (alpha)


General
Complete name                            : ../.././Samples/divx4b153_badmacroblock.avi
Format                                   : AVI
Format/Info                              : Audio Video Interleave
File size                                : 4.81 MiB
Duration                                 : 44 s 0 ms
Overall bit rate mode                    : Variable
Overall bit rate                         : 917 kb/s
Writing library                          : VirtualDub build 0/release

Video
ID                                       : 0
Format                                   : MPEG-4 Visual
Codec ID                                 : DIV3
Codec ID/Hint                            : DivX 3 Low
Duration                                 : 44 s 0 ms
Bit rate                                 : 775 kb/s
Width                                    : 576 pixels
Height                                   : 312 pixels
Display aspect ratio                     : 1.85:1
Frame rate                               : 25.000 FPS
Color space                              : YUV
Chroma subsampling                       : 4:2:0
Bit depth                                : 8 bits
Compression mode                         : Lossy
Bits/(Pixel*Frame)                       : 0.172
Stream size                              : 4.06 MiB (84%)

Audio
ID                                       : 1
Format                                   : MPEG Audio
Format version                           : Version 1
Format profile                           : Layer 3
Codec ID                                 : 55
Codec ID/Hint                            : MP3
Duration                                 : 43 s 990 ms
Bit rate mode                            : Variable
Bit rate                                 : 128 kb/s
Channel(s)                               : 2 channels
Sampling rate                            : 44.1 kHz
Frame rate                               : 38.281 FPS (1152 SPF)
Compression mode                         : Lossy
Stream size                              : 686 KiB (14%)
Alignment                                : Aligned on interleaves
Interleave, duration                     : 26  ms (0.65 video frame)
Interleave, preload duration             : 495  ms
Writing library                          : LAME3.88 (alpha)


General
Complete name                            : ../.././Samples/divx4b153_badmacroblock.avi
Format                                   : AVI
Format/Info                              : Audio Video Interleave
File size                                : 4.81 MiB
Duration                                 : 44 s 0 ms
Overall bit rate mode                    : Variable
Overall bit rate                         : 917 kb/s
Writing library                          : VirtualDub build 0/release

Video
ID                                       : 0
Format                                   : MPEG-4 Visual
Codec ID                                 : DIV3
Codec ID/Hint                            : DivX 3 Low
Duration                                 : 44 s 0 ms
Bit rate                                 : 775 kb/s
Width                                    : 576 pixels
Height                                   : 312 pixels
Display aspect ratio                     : 1.85:1
Frame rate                               : 25.000 FPS
Color space                              : YUV
Chroma subsampling                       : 4:2:0
Bit depth                                : 8 bits
Compression mode                         : Lossy
Bits/(Pixel*Frame)                       : 0.172
Stream size                              : 4.06 MiB (84%)

Audio
ID                                       : 1
Format                                   : MPEG Audio
Format version                           : Version 1
Format profile                           : Layer 3
Codec ID                                 : 55
Codec ID/Hint                            : MP3
Duration                                 : 43 s 990 ms
Bit rate mode                            : Variable
Bit rate                                 : 128 kb/s
Channel(s)                               : 2 channels
Sampling rate                            : 44.1 kHz
Frame rate                               : 38.281 FPS (1152 SPF)
Compression mode                         : Lossy
Stream size                              : 686 KiB (14%)
Alignment                                : Aligned on interleaves
Interleave, duration                     : 26  ms (0.65 video frame)
Interleave, preload duration             : 495  ms
Writing library                          : LAME3.88 (alpha)


General
Complete name                            : ../.././Samples/divx4b153_badmacroblock.avi
Format                                   : AVI
Format/Info                              : Audio Video Interleave
File size                                : 4.81 MiB
Duration                                 : 44 s 0 ms
Overall bit rate mode                    : Variable
Overall bit rate                         : 917 kb/s
Writing library                          : VirtualDub build 0/release

Video
ID                                       : 0
Format                                   : MPEG-4 Visual
Codec ID                                 : DIV3
Codec ID/Hint                            : DivX 3 Low
Duration                                 : 44 s 0 ms
Bit rate                                 : 775 kb/s
Width                                    : 576 pixels
Height                                   : 312 pixels
Display aspect ratio                     : 1.85:1
Frame rate                               : 25.000 FPS
Color space                              : YUV
Chroma subsampling                       : 4:2:0
Bit depth                                : 8 bits
Compression mode                         : Lossy
Bits/(Pixel*Frame)                       : 0.172
Stream size                              : 4.06 MiB (84%)

Audio
ID                                       : 1
Format                                   : MPEG Audio
Format version                           : Version 1
Format profile                           : Layer 3
Codec ID                                 : 55
Codec ID/Hint                            : MP3
Duration                                 : 43 s 990 ms
Bit rate mode                            : Variable
Bit rate                                 : 128 kb/s
Channel(s)                               : 2 channels
Sampling rate                            : 44.1 kHz
Frame rate                               : 38.281 FPS (1152 SPF)
Compression mode                         : Lossy
Stream size                              : 686 KiB (14%)
Alignment                                : Aligned on interleaves
Interleave, duration                     : 26  ms (0.65 video frame)
Interleave, preload duration             : 495  ms
Writing library                          : LAME3.88 (alpha)


General
Complete name                            : ../.././Samples/divx4b153_badmacroblock.avi
Format                                   : AVI
Format/Info                              : Audio Video Interleave
File size                                : 4.81 MiB
Duration                                 : 44 s 0 ms
Overall bit rate mode                    : Variable
Overall bit rate                         : 917 kb/s
Writing library                          : VirtualDub build 0/release

Video
ID                                       : 0
Format                                   : MPEG-4 Visual
Codec ID                                 : DIV3
Codec ID/Hint                            : DivX 3 Low
Duration                                 : 44 s 0 ms
Bit rate                                 : 775 kb/s
Width                                    : 576 pixels
Height                                   : 312 pixels
Display aspect ratio                     : 1.85:1
Frame rate                               : 25.000 FPS
Color space                              : YUV
Chroma subsampling                       : 4:2:0
Bit depth                                : 8 bits
Compression mode                         : Lossy
Bits/(Pixel*Frame)                       : 0.172
Stream size                              : 4.06 MiB (84%)

Audio
ID                                       : 1
Format                                   : MPEG Audio
Format version                           : Version 1
Format profile                           : Layer 3
Codec ID                                 : 55
Codec ID/Hint                            : MP3
Duration                                 : 43 s 990 ms
Bit rate mode                            : Variable
Bit rate                                 : 128 kb/s
Channel(s)                               : 2 channels
Sampling rate                            : 44.1 kHz
Frame rate                               : 38.281 FPS (1152 SPF)
Compression mode                         : Lossy
Stream size                              : 686 KiB (14%)
Alignment                                : Aligned on interleaves
Interleave, duration                     : 26  ms (0.65 video frame)
Interleave, preload duration             : 495  ms
Writing library                          : LAME3.88 (alpha)


General
Complete name                            : ../.././Samples/divx4b153_badmacroblock.avi
Format                                   : AVI
Format/Info                              : Audio Video Interleave
File size                                : 4.81 MiB
Duration                                 : 44 s 0 ms
Overall bit rate mode                    : Variable
Overall bit rate                         : 917 kb/s
Writing library                          : VirtualDub build 0/release

Video
ID                                       : 0
Format                                   : MPEG-4 Visual
Codec ID                                 : DIV3
Codec ID/Hint                            : DivX 3 Low
Duration                                 : 44 s 0 ms
Bit rate                                 : 775 kb/s
Width                                    : 576 pixels
Height                                   : 312 pixels
Display aspect ratio                     : 1.85:1
Frame rate                               : 25.000 FPS
Color space                              : YUV
Chroma subsampling                       : 4:2:0
Bit depth                                : 8 bits
Compression mode                         : Lossy
Bits/(Pixel*Frame)                       : 0.172
Stream size                              : 4.06 MiB (84%)

Audio
ID                                       : 1
Format                                   : MPEG Audio
Format version                           : Version 1
Format profile                           : Layer 3
Codec ID                                 : 55
Codec ID/Hint                            : MP3
Duration                                 : 43 s 990 ms
Bit rate mode                            : Variable
Bit rate                                 : 128 kb/s
Channel(s)                               : 2 channels
Sampling rate                            : 44.1 kHz
Frame rate                               : 38.281 FPS (1152 SPF)
Compression mode                         : Lossy
Stream size                              : 686 KiB (14%)
Alignment                                : Aligned on interleaves
Interleave, duration                     : 26  ms (0.65 video frame)
Interleave, preload duration             : 495  ms
Writing library                          : LAME3.88 (alpha)


